{
  "asset": {
    "version": "2.0",
    "generator": "THREE.GLTFExporter"
  },
  "scenes": [
    {
      "name": "Scene",
      "nodes": [
        9,
        10
      ]
    }
  ],
  "scene": 0,
  "nodes": [
    {
      "name": "Text003",
      "mesh": 0
    },
    {
      "name": "Text003_1",
      "mesh": 1
    },
    {
      "name": "Text003_2",
      "mesh": 2
    },
    {
      "name": "Text003_3",
      "mesh": 3
    },
    {
      "name": "Text003_4",
      "mesh": 4
    },
    {
      "name": "Text003_5",
      "mesh": 5
    },
    {
      "name": "Text003_6",
      "mesh": 6
    },
    {
      "name": "Text003_7",
      "mesh": 7
    },
    {
      "matrix": [
        1.9408329725265503,
        0,
        0,
        0,
        0,
        -2.6076813085079665e-7,
        1.940833144513225,
        0,
        0,
        -1.940833144513225,
        -2.6076813085079665e-7,
        0,
        0,
        0,
        0,
        1
      ],
      "name": "Food_Truck",
      "extras": {
        "name": "Food Truck"
      },
      "children": [
        0,
        1,
        2,
        3,
        4,
        5,
        6,
        7
      ]
    },
    {
      "name": "foodTruck.gltf",
      "children": [
        8
      ]
    },
    {
      "matrix": [
        1,
        0,
        0,
        0,
        0,
        1,
        0,
        0,
        0,
        0,
        1,
        0,
        -20.038125856275883,
        12.85927498051627,
        13.822208541576618,
        1
      ],
      "name": "DirectionalLight",
      "extensions": {
        "KHR_lights_punctual": {
          "light": 0
        }
      }
    }
  ],
  "bufferViews": [
    {
      "buffer": 0,
      "byteOffset": 0,
      "byteLength": 30804,
      "target": 34962,
      "byteStride": 12
    },
    {
      "buffer": 0,
      "byteOffset": 30804,
      "byteLength": 30804,
      "target": 34962,
      "byteStride": 12
    },
    {
      "buffer": 0,
      "byteOffset": 61608,
      "byteLength": 20536,
      "target": 34962,
      "byteStride": 8
    },
    {
      "buffer": 0,
      "byteOffset": 82144,
      "byteLength": 5904,
      "target": 34963
    },
    {
      "buffer": 0,
      "byteOffset": 88048,
      "byteLength": 34152,
      "target": 34962,
      "byteStride": 12
    },
    {
      "buffer": 0,
      "byteOffset": 122200,
      "byteLength": 34152,
      "target": 34962,
      "byteStride": 12
    },
    {
      "buffer": 0,
      "byteOffset": 156352,
      "byteLength": 22768,
      "target": 34962,
      "byteStride": 8
    },
    {
      "buffer": 0,
      "byteOffset": 179120,
      "byteLength": 7560,
      "target": 34963
    },
    {
      "buffer": 0,
      "byteOffset": 186680,
      "byteLength": 624,
      "target": 34962,
      "byteStride": 12
    },
    {
      "buffer": 0,
      "byteOffset": 187304,
      "byteLength": 624,
      "target": 34962,
      "byteStride": 12
    },
    {
      "buffer": 0,
      "byteOffset": 187928,
      "byteLength": 416,
      "target": 34962,
      "byteStride": 8
    },
    {
      "buffer": 0,
      "byteOffset": 188344,
      "byteLength": 108,
      "target": 34963
    },
    {
      "buffer": 0,
      "byteOffset": 188452,
      "byteLength": 4032,
      "target": 34962,
      "byteStride": 12
    },
    {
      "buffer": 0,
      "byteOffset": 192484,
      "byteLength": 4032,
      "target": 34962,
      "byteStride": 12
    },
    {
      "buffer": 0,
      "byteOffset": 196516,
      "byteLength": 2688,
      "target": 34962,
      "byteStride": 8
    },
    {
      "buffer": 0,
      "byteOffset": 199204,
      "byteLength": 852,
      "target": 34963
    },
    {
      "buffer": 0,
      "byteOffset": 200056,
      "byteLength": 96,
      "target": 34962,
      "byteStride": 12
    },
    {
      "buffer": 0,
      "byteOffset": 200152,
      "byteLength": 96,
      "target": 34962,
      "byteStride": 12
    },
    {
      "buffer": 0,
      "byteOffset": 200248,
      "byteLength": 64,
      "target": 34962,
      "byteStride": 8
    },
    {
      "buffer": 0,
      "byteOffset": 200312,
      "byteLength": 24,
      "target": 34963
    },
    {
      "buffer": 0,
      "byteOffset": 200336,
      "byteLength": 216,
      "target": 34962,
      "byteStride": 12
    },
    {
      "buffer": 0,
      "byteOffset": 200552,
      "byteLength": 216,
      "target": 34962,
      "byteStride": 12
    },
    {
      "buffer": 0,
      "byteOffset": 200768,
      "byteLength": 144,
      "target": 34962,
      "byteStride": 8
    },
    {
      "buffer": 0,
      "byteOffset": 200912,
      "byteLength": 60,
      "target": 34963
    },
    {
      "buffer": 0,
      "byteOffset": 200972,
      "byteLength": 209088,
      "target": 34962,
      "byteStride": 12
    },
    {
      "buffer": 0,
      "byteOffset": 410060,
      "byteLength": 209088,
      "target": 34962,
      "byteStride": 12
    },
    {
      "buffer": 0,
      "byteOffset": 619148,
      "byteLength": 139392,
      "target": 34962,
      "byteStride": 8
    },
    {
      "buffer": 0,
      "byteOffset": 758540,
      "byteLength": 36180,
      "target": 34963
    },
    {
      "buffer": 0,
      "byteOffset": 794720,
      "byteLength": 4812,
      "target": 34962,
      "byteStride": 12
    },
    {
      "buffer": 0,
      "byteOffset": 799532,
      "byteLength": 4812,
      "target": 34962,
      "byteStride": 12
    },
    {
      "buffer": 0,
      "byteOffset": 804344,
      "byteLength": 3208,
      "target": 34962,
      "byteStride": 8
    },
    {
      "buffer": 0,
      "byteOffset": 807552,
      "byteLength": 1200,
      "target": 34963
    }
  ],
  "buffers": [
    {
      "byteLength": 808752,
      "uri": "data:application/octet-stream;base64,"
    }
  ],
  "accessors": [
    {
      "bufferView": 0,
      "componentType": 5126,
      "count": 2567,
      "max": [
        2.198922872543335,
        1.0689667463302612,
        -1.420933485031128
      ],
      "min": [
        -2.616077184677124,
        0.878966748714447,
        -2.1209335327148438
      ],
      "type": "VEC3"
    },
    {
      "bufferView": 1,
      "componentType": 5126,
      "count": 2567,
      "max": [
        1,
        1,
        1
      ],
      "min": [
        -1,
        -1,
        -1
      ],
      "type": "VEC3"
    },
    {
      "bufferView": 2,
      "componentType": 5126,
      "count": 2567,
      "max": [
        1,
        1
      ],
      "min": [
        0,
        1
      ],
      "type": "VEC2"
    },
    {
      "bufferView": 3,
      "componentType": 5123,
      "count": 2952,
      "max": [
        2566
      ],
      "min": [
        0
      ],
      "type": "SCALAR"
    },
    {
      "bufferView": 4,
      "componentType": 5126,
      "count": 2846,
      "max": [
        2.953955888748169,
        1.266259789466858,
        1.7083159685134888
      ],
      "min": [
        -3.8292229175567627,
        -1.2496761083602905,
        -2.363208293914795
      ],
      "type": "VEC3"
    },
    {
      "bufferView": 5,
      "componentType": 5126,
      "count": 2846,
      "max": [
        1,
        1,
        1
      ],
      "min": [
        -1,
        -1,
        -1
      ],
      "type": "VEC3"
    },
    {
      "bufferView": 6,
      "componentType": 5126,
      "count": 2846,
      "max": [
        0.875,
        1
      ],
      "min": [
        0,
        0
      ],
      "type": "VEC2"
    },
    {
      "bufferView": 7,
      "componentType": 5123,
      "count": 3780,
      "max": [
        2845
      ],
      "min": [
        0
      ],
      "type": "SCALAR"
    },
    {
      "bufferView": 8,
      "componentType": 5126,
      "count": 52,
      "max": [
        -2.4353742599487305,
        0.9045067429542542,
        -0.0379410982131958
      ],
      "min": [
        -3.6895344257354736,
        -0.8879226446151733,
        -0.9933792352676392
      ],
      "type": "VEC3"
    },
    {
      "bufferView": 9,
      "componentType": 5126,
      "count": 52,
      "max": [
        2.692988232411153e-7,
        1,
        0
      ],
      "min": [
        -0.9144760966300964,
        -1,
        -0.40464094281196594
      ],
      "type": "VEC3"
    },
    {
      "bufferView": 10,
      "componentType": 5126,
      "count": 52,
      "max": [
        0.6062510013580322,
        0.7346451282501221
      ],
      "min": [
        0.5033940076828003,
        0.625
      ],
      "type": "VEC2"
    },
    {
      "bufferView": 11,
      "componentType": 5123,
      "count": 54,
      "max": [
        51
      ],
      "min": [
        0
      ],
      "type": "SCALAR"
    },
    {
      "bufferView": 12,
      "componentType": 5126,
      "count": 336,
      "max": [
        2.7416632175445557,
        1.0507349967956543,
        0.8478144407272339
      ],
      "min": [
        -1.961871862411499,
        -1.1029824018478394,
        -1.080105185508728
      ],
      "type": "VEC3"
    },
    {
      "bufferView": 13,
      "componentType": 5126,
      "count": 336,
      "max": [
        1,
        1,
        1
      ],
      "min": [
        -1,
        -1,
        -1
      ],
      "type": "VEC3"
    },
    {
      "bufferView": 14,
      "componentType": 5126,
      "count": 336,
      "max": [
        0.613456130027771,
        0.9095269441604614
      ],
      "min": [
        0.5061423778533936,
        0.7685598731040955
      ],
      "type": "VEC2"
    },
    {
      "bufferView": 15,
      "componentType": 5123,
      "count": 426,
      "max": [
        335
      ],
      "min": [
        0
      ],
      "type": "SCALAR"
    },
    {
      "bufferView": 16,
      "componentType": 5126,
      "count": 8,
      "max": [
        0.2056741714477539,
        -0.16924822330474854,
        0.20401406288146973
      ],
      "min": [
        -1.7470762729644775,
        -0.9509750604629517,
        0.20401406288146973
      ],
      "type": "VEC3"
    },
    {
      "bufferView": 17,
      "componentType": 5126,
      "count": 8,
      "max": [
        0,
        0,
        -1
      ],
      "min": [
        0,
        0,
        -1
      ],
      "type": "VEC3"
    },
    {
      "bufferView": 18,
      "componentType": 5126,
      "count": 8,
      "max": [
        0.5061423778533936,
        0.8724123239517212
      ],
      "min": [
        0.5061423778533936,
        0.7788512706756592
      ],
      "type": "VEC2"
    },
    {
      "bufferView": 19,
      "componentType": 5123,
      "count": 12,
      "max": [
        7
      ],
      "min": [
        0
      ],
      "type": "SCALAR"
    },
    {
      "bufferView": 20,
      "componentType": 5126,
      "count": 18,
      "max": [
        0.22227907180786133,
        0.5278722643852234,
        -1.283742070198059
      ],
      "min": [
        -2.032733917236328,
        -0.7889792919158936,
        -1.6996020078659058
      ],
      "type": "VEC3"
    },
    {
      "bufferView": 21,
      "componentType": 5126,
      "count": 18,
      "max": [
        0,
        0,
        0
      ],
      "min": [
        -1,
        -1,
        -1
      ],
      "type": "VEC3"
    },
    {
      "bufferView": 22,
      "componentType": 5126,
      "count": 18,
      "max": [
        0.7916666269302368,
        0.48871803283691406
      ],
      "min": [
        0.7499998211860657,
        0.37679213285446167
      ],
      "type": "VEC2"
    },
    {
      "bufferView": 23,
      "componentType": 5123,
      "count": 30,
      "max": [
        17
      ],
      "min": [
        0
      ],
      "type": "SCALAR"
    },
    {
      "bufferView": 24,
      "componentType": 5126,
      "count": 17424,
      "max": [
        3.1298768520355225,
        1.0693529844284058,
        2.0474424362182617
      ],
      "min": [
        -3.341355323791504,
        -1.0527690649032593,
        -2.232111692428589
      ],
      "type": "VEC3"
    },
    {
      "bufferView": 25,
      "componentType": 5126,
      "count": 17424,
      "max": [
        1,
        1,
        0.9951850175857544
      ],
      "min": [
        -0.995185375213623,
        -1,
        -1
      ],
      "type": "VEC3"
    },
    {
      "bufferView": 26,
      "componentType": 5126,
      "count": 17424,
      "max": [
        0,
        1
      ],
      "min": [
        0,
        1
      ],
      "type": "VEC2"
    },
    {
      "bufferView": 27,
      "componentType": 5123,
      "count": 18090,
      "max": [
        17423
      ],
      "min": [
        0
      ],
      "type": "SCALAR"
    },
    {
      "bufferView": 28,
      "componentType": 5126,
      "count": 401,
      "max": [
        2.970170259475708,
        -0.3468259572982788,
        1.0312811136245728
      ],
      "min": [
        2.872208833694458,
        -0.990909218788147,
        -1.1908788681030273
      ],
      "type": "VEC3"
    },
    {
      "bufferView": 29,
      "componentType": 5126,
      "count": 401,
      "max": [
        1,
        1,
        1
      ],
      "min": [
        -1,
        -1,
        -1
      ],
      "type": "VEC3"
    },
    {
      "bufferView": 30,
      "componentType": 5126,
      "count": 401,
      "max": [
        0.875,
        1
      ],
      "min": [
        0.125,
        0
      ],
      "type": "VEC2"
    },
    {
      "bufferView": 31,
      "componentType": 5123,
      "count": 600,
      "max": [
        400
      ],
      "min": [
        0
      ],
      "type": "SCALAR"
    }
  ],
  "materials": [
    {
      "pbrMetallicRoughness": {
        "baseColorFactor": [
          0.6606783270835876,
          0.8000000715255737,
          0.13176964223384857,
          1
        ],
        "metallicFactor": 0,
        "roughnessFactor": 0.5
      },
      "emissiveFactor": [
        0.5976582169532776,
        0.37264758348464966,
        0
      ],
      "doubleSided": true,
      "name": "Material.004"
    },
    {
      "pbrMetallicRoughness": {
        "metallicFactor": 0.6569768190383911,
        "roughnessFactor": 1
      },
      "doubleSided": true,
      "name": "Truck_body"
    },
    {
      "pbrMetallicRoughness": {
        "baseColorFactor": [
          0.800000011920929,
          0.800000011920929,
          0.800000011920929,
          1
        ],
        "metallicFactor": 0.674418568611145,
        "roughnessFactor": 0.7325581312179565
      },
      "doubleSided": true,
      "name": "Glass",
      "extensions": {
        "KHR_materials_clearcoat": {
          "clearcoatFactor": 0,
          "clearcoatRoughnessFactor": 0
        },
        "KHR_materials_iridescence": {
          "iridescenceFactor": 0,
          "iridescenceIor": 1.3,
          "iridescenceThicknessMinimum": 100,
          "iridescenceThicknessMaximum": 400
        }
      }
    },
    {
      "pbrMetallicRoughness": {
        "baseColorFactor": [
          0.14520640671253204,
          0.14239491522312164,
          0.13415218889713287,
          1
        ],
        "metallicFactor": 0.31976744532585144,
        "roughnessFactor": 0.5232558250427246
      },
      "doubleSided": true,
      "name": "Truck_interior",
      "extensions": {
        "KHR_materials_clearcoat": {
          "clearcoatFactor": 0,
          "clearcoatRoughnessFactor": 0
        },
        "KHR_materials_iridescence": {
          "iridescenceFactor": 0,
          "iridescenceIor": 1.3,
          "iridescenceThicknessMinimum": 100,
          "iridescenceThicknessMaximum": 400
        }
      }
    },
    {
      "pbrMetallicRoughness": {
        "baseColorFactor": [
          0,
          0,
          0,
          1
        ],
        "metallicFactor": 1,
        "roughnessFactor": 1
      },
      "emissiveFactor": [
        0.96094810962677,
        0.08405773341655731,
        0.09406894445419312
      ],
      "doubleSided": true,
      "name": "Stove"
    },
    {
      "pbrMetallicRoughness": {
        "baseColorFactor": [
          0.380052775144577,
          0.2956264019012451,
          0.7021711468696594,
          1
        ],
        "metallicFactor": 0.7906976938247681,
        "roughnessFactor": 0.5
      },
      "doubleSided": true,
      "name": "Metal"
    },
    {
      "pbrMetallicRoughness": {
        "baseColorFactor": [
          0.003239457029849291,
          0.0021994966082274914,
          0.004581672139465809,
          1
        ],
        "metallicFactor": 0,
        "roughnessFactor": 0.5
      },
      "doubleSided": true,
      "name": "Rubber"
    },
    {
      "pbrMetallicRoughness": {
        "baseColorFactor": [
          0.3589405417442322,
          0.3589405417442322,
          0.3589405417442322,
          1
        ],
        "metallicFactor": 0.9418604373931885,
        "roughnessFactor": 0.6918604373931885
      },
      "doubleSided": true,
      "name": "Material.003"
    }
  ],
  "meshes": [
    {
      "primitives": [
        {
          "mode": 4,
          "attributes": {
            "POSITION": 0,
            "NORMAL": 1,
            "TEXCOORD_0": 2
          },
          "indices": 3,
          "material": 0
        }
      ]
    },
    {
      "primitives": [
        {
          "mode": 4,
          "attributes": {
            "POSITION": 4,
            "NORMAL": 5,
            "TEXCOORD_0": 6
          },
          "indices": 7,
          "material": 1
        }
      ]
    },
    {
      "primitives": [
        {
          "mode": 4,
          "attributes": {
            "POSITION": 8,
            "NORMAL": 9,
            "TEXCOORD_0": 10
          },
          "indices": 11,
          "material": 2
        }
      ]
    },
    {
      "primitives": [
        {
          "mode": 4,
          "attributes": {
            "POSITION": 12,
            "NORMAL": 13,
            "TEXCOORD_0": 14
          },
          "indices": 15,
          "material": 3
        }
      ]
    },
    {
      "primitives": [
        {
          "mode": 4,
          "attributes": {
            "POSITION": 16,
            "NORMAL": 17,
            "TEXCOORD_0": 18
          },
          "indices": 19,
          "material": 4
        }
      ]
    },
    {
      "primitives": [
        {
          "mode": 4,
          "attributes": {
            "POSITION": 20,
            "NORMAL": 21,
            "TEXCOORD_0": 22
          },
          "indices": 23,
          "material": 5
        }
      ]
    },
    {
      "primitives": [
        {
          "mode": 4,
          "attributes": {
            "POSITION": 24,
            "NORMAL": 25,
            "TEXCOORD_0": 26
          },
          "indices": 27,
          "material": 6
        }
      ]
    },
    {
      "primitives": [
        {
          "mode": 4,
          "attributes": {
            "POSITION": 28,
            "NORMAL": 29,
            "TEXCOORD_0": 30
          },
          "indices": 31,
          "material": 7
        }
      ]
    }
  ],
  "extensions": {
    "KHR_lights_punctual": {
      "lights": [
        {
          "name": "DirectionalLight",
          "color": [
            1,
            1,
            1
          ],
          "intensity": 1,
          "type": "directional"
        }
      ]
    }
  },
  "extensionsUsed": [
    "KHR_materials_clearcoat",
    "KHR_materials_iridescence",
    "KHR_lights_punctual"
  ]
}